<?xml version="1.0" encoding="UTF-8" standalone="no"?>
<svg height="16" viewBox="0 0 16 16" width="16" xmlns="http://www.w3.org/2000/svg" sodipodi:docname="coin-symbolic.svg" inkscape:version="1.2 (dc2aedaf03, 2022-05-15)" inkscape:export-filename="income.svg" inkscape:export-xdpi="96" inkscape:export-ydpi="96" xmlns:inkscape="http://www.inkscape.org/namespaces/inkscape" xmlns:sodipodi="http://sodipodi.sourceforge.net/DTD/sodipodi-0.dtd" xmlns:svg="http://www.w3.org/2000/svg">
    <sodipodi:namedview pagecolor="#505050" bordercolor="#eeeeee" borderopacity="1" inkscape:showpageshadow="0" inkscape:pageopacity="0" inkscape:pagecheckerboard="0" inkscape:deskcolor="#505050" showgrid="true" inkscape:zoom="45.254834" inkscape:cx="5.0270873" inkscape:cy="6.4965435" inkscape:window-width="3072" inkscape:window-height="1659" inkscape:window-x="0" inkscape:window-y="0" inkscape:window-maximized="1" inkscape:current-layer="svg8">
        <inkscape:grid/>
    </sodipodi:namedview>
    <g fill="#222222">
        <g stroke-width="0.62478351">
            <path d="m 7.99981808 6.003464 c -2.76027417889 0 -4.99826808 2.23799390111 -4.99826808 4.99826808 s 2.23799390111 4.99826808 4.99826808 4.99826808 s 4.99826808 -2.23799390111 4.99826808 -4.99826808 s -2.23799390111 -4.99826808 -4.99826808 -4.99826808 z m 0 1.24956702 c 2.06959537688 0 3.74870106 1.67910568313 3.74870106 3.74870106 s -1.67910568312 3.74870106 -3.74870106 3.74870106 s -3.74870106 -1.67910568312 -3.74870106 -3.74870106 s 1.67910568313 -3.74870106 3.74870106 -3.74870106 z m 0 0"/>
            <path d="m 7.37503457 7.87781453 v 0.58085373184 c -0.91521037592 0.16351709067 -1.44969267566 0.70776225753 -1.44969267566 1.52046877645 c 0 0.74193041812 0.45394395659 1.23980477766 1.27641271786 1.38379800842 l 1.1104552228 0.19524484687 c 0.50275579309 0.0854197767 0.69800063997 0.22209116952 0.69800063997 0.50519619748 c 0 0.30995072583 -0.33923807764 0.49055252158 -0.90788916275 0.49055252158 c -0.58329351145 0 -1.06652481986 -0.20256668483 -1.67910568313 -0.70044104436 l -0.69311858162 0.9005673248 c 0.46370619894 0.39537050253 1.044559306 0.66627288377 1.64493752253 0.78341979189 v 0.58817494502 h 1.24956702 v -0.57597229828 c 1.00307055702 -0.16595811984 1.59856733998 -0.74925225608 1.59856733998 -1.60832958233 c 0 -0.7809793875 -0.51251803544 -1.27641271786 -1.48630124064 -1.43504962453 l -1.04456055556 -0.17327933301 c -0.42709763395 -0.07321712997 -0.59793718736 -0.19768587605 -0.59793718736 -0.44906314781 c 0 -0.27334278562 0.30751094622 -0.43930153025 0.81270651892 -0.43930153025 c 0.53448292452 0 1.01771423292 0.1879236337 1.55219715744 0.59793781214 l 0.65406961225 -0.91521037592 c -0.40269234048 -0.32459440173 -0.937175265 -0.55644781359 -1.48874164503 -0.65895167059 v -0.59061534941 z m 0 0"/>
        </g>
        <path d="m 6.0326847 2.6694631 h 0.4835262 c 0.1246587 0 0.256873 -0.06233 0.3475338 -0.1511023 l 0.6195167 -0.619517 v 4.1552975 h 0.9670514 v -4.1552975 l 0.6195166 0.619517 c 0.092551 0.088773 0.2228752 0.1511023 0.3475349 0.1511023 h 0.4835252 v -0.4835254 c 0 -0.1492124 -0.043444 -0.2663165 -0.1359924 -0.3626443 l -1.7981106 -1.76788987 l -1.7981104 1.76788987 c -0.092548 0.0963282 -0.1359914 0.2134321 -0.1359914 0.3626443 z m 0 0" stroke-width="0.483525" inkscape:transform-center-x="0.018730769" inkscape:transform-center-y="0.027448752"/>
    </g>
</svg>
