<?xml version="1.0" encoding="UTF-8" standalone="no"?>
<svg
   height="16"
   viewBox="0 0 16 16"
   width="16"
   version="1.1"
   id="svg8"
   sodipodi:docname="coin-symbolic.svg"
   xml:space="preserve"
   inkscape:version="1.2 (dc2aedaf03, 2022-05-15)"
   inkscape:export-filename="income.svg"
   inkscape:export-xdpi="96"
   inkscape:export-ydpi="96"
   xmlns:inkscape="http://www.inkscape.org/namespaces/inkscape"
   xmlns:sodipodi="http://sodipodi.sourceforge.net/DTD/sodipodi-0.dtd"
   xmlns="http://www.w3.org/2000/svg"
   xmlns:svg="http://www.w3.org/2000/svg"><defs
     id="defs12" /><sodipodi:namedview
     id="namedview10"
     pagecolor="#505050"
     bordercolor="#eeeeee"
     borderopacity="1"
     inkscape:showpageshadow="0"
     inkscape:pageopacity="0"
     inkscape:pagecheckerboard="0"
     inkscape:deskcolor="#505050"
     showgrid="true"
     inkscape:zoom="45.254834"
     inkscape:cx="5.734194"
     inkscape:cy="5.2370096"
     inkscape:window-width="3072"
     inkscape:window-height="1659"
     inkscape:window-x="0"
     inkscape:window-y="0"
     inkscape:window-maximized="1"
     inkscape:current-layer="svg8"><inkscape:grid
       type="xygrid"
       id="grid118" /></sodipodi:namedview><g
     fill="#222222"
     id="g6"
     transform="matrix(0.62478351,0,0,0.62478351,3.0015496,6.0034638)"><path
       d="M 8,0 C 3.582031,0 0,3.582031 0,8 c 0,4.417969 3.582031,8 8,8 4.417969,0 8,-3.582031 8,-8 C 16,3.582031 12.417969,0 8,0 Z m 0,2 c 3.3125,0 6,2.6875 6,6 0,3.3125 -2.6875,6 -6,6 C 4.6875,14 2,11.3125 2,8 2,4.6875 4.6875,2 8,2 Z m 0,0"
       id="path2" /><path
       d="M 7,3 V 3.929688 C 5.535156,4.191406 4.679688,5.0625 4.679688,6.363281 c 0,1.1875 0.726562,1.984375 2.042968,2.214844 L 8.5,8.890625 c 0.804688,0.136719 1.117188,0.355469 1.117188,0.808594 0,0.496093 -0.542969,0.785156 -1.453126,0.785156 -0.933593,0 -1.707031,-0.324219 -2.6875,-1.121094 L 4.367188,10.804688 C 5.109375,11.4375 6.039062,11.871094 7,12.058594 V 13 h 2 v -0.921875 c 1.605469,-0.265625 2.558594,-1.199219 2.558594,-2.574219 0,-1.25 -0.820313,-2.042968 -2.378906,-2.296875 L 7.507812,6.929688 C 6.824219,6.8125 6.550781,6.613281 6.550781,6.210938 c 0,-0.4375 0.492188,-0.703126 1.300781,-0.703126 0.855469,0 1.628907,0.300782 2.484376,0.957032 L 11.382812,5 C 10.738281,4.480469 9.882812,4.109375 9,3.945312 V 3 Z m 0,0"
       id="path4" /></g><path
     d="M 9.938351,3.3851842 H 9.4548248 c -0.1246587,0 -0.256873,0.06233 -0.3475338,0.1511023 L 8.4877743,4.1558035 V 5.0607562e-4 H 7.5207229 V 4.1558035 L 6.9012063,3.5362865 C 6.8086553,3.4475135 6.6783311,3.3851842 6.5536714,3.3851842 H 6.0701462 v 0.4835254 c 0,0.1492124 0.043444,0.2663165 0.1359924,0.3626443 L 8.0042492,5.9992438 9.8023596,4.2313539 C 9.8949076,4.1350257 9.938351,4.0179218 9.938351,3.8687096 Z m 0,0"
     fill="#222222"
     id="path1385"
     style="stroke-width:0.483525" /></svg>
